<mxfile host="app.diagrams.net" agent="Mozilla/5.0 (Windows NT 10.0; Win64; x64) AppleWebKit/537.36 (KHTML, like Gecko) Chrome/127.0.0.0 Safari/537.36" version="24.7.7">
  <diagram name="Страница — 1" id="082Mrg_bc2K81PVXMFEi">
    <mxGraphModel dx="2876" dy="1054" grid="1" gridSize="10" guides="1" tooltips="1" connect="1" arrows="1" fold="1" page="1" pageScale="1" pageWidth="827" pageHeight="1169" math="0" shadow="0">
      <root>
        <mxCell id="0" />
        <mxCell id="1" parent="0" />
        <mxCell id="K0vT35Zqtz-yyDxqhwDM-5" style="edgeStyle=orthogonalEdgeStyle;rounded=0;orthogonalLoop=1;jettySize=auto;html=1;entryX=0;entryY=0.5;entryDx=0;entryDy=0;" edge="1" parent="1" source="K0vT35Zqtz-yyDxqhwDM-1" target="K0vT35Zqtz-yyDxqhwDM-2">
          <mxGeometry relative="1" as="geometry">
            <Array as="points">
              <mxPoint x="73" y="260" />
              <mxPoint x="73" y="140" />
            </Array>
          </mxGeometry>
        </mxCell>
        <mxCell id="K0vT35Zqtz-yyDxqhwDM-6" value="Использует" style="edgeLabel;html=1;align=center;verticalAlign=middle;resizable=0;points=[];" vertex="1" connectable="0" parent="K0vT35Zqtz-yyDxqhwDM-5">
          <mxGeometry x="-0.2636" relative="1" as="geometry">
            <mxPoint as="offset" />
          </mxGeometry>
        </mxCell>
        <mxCell id="K0vT35Zqtz-yyDxqhwDM-8" style="edgeStyle=orthogonalEdgeStyle;rounded=0;orthogonalLoop=1;jettySize=auto;html=1;" edge="1" parent="1" source="K0vT35Zqtz-yyDxqhwDM-1" target="K0vT35Zqtz-yyDxqhwDM-3">
          <mxGeometry relative="1" as="geometry" />
        </mxCell>
        <mxCell id="K0vT35Zqtz-yyDxqhwDM-9" style="edgeStyle=orthogonalEdgeStyle;rounded=0;orthogonalLoop=1;jettySize=auto;html=1;entryX=0;entryY=0.5;entryDx=0;entryDy=0;" edge="1" parent="1" source="K0vT35Zqtz-yyDxqhwDM-1" target="K0vT35Zqtz-yyDxqhwDM-4">
          <mxGeometry relative="1" as="geometry">
            <Array as="points">
              <mxPoint x="73" y="260" />
              <mxPoint x="73" y="400" />
              <mxPoint x="143" y="400" />
            </Array>
          </mxGeometry>
        </mxCell>
        <mxCell id="K0vT35Zqtz-yyDxqhwDM-1" value="User" style="shape=umlActor;verticalLabelPosition=bottom;verticalAlign=top;html=1;outlineConnect=0;" vertex="1" parent="1">
          <mxGeometry x="-60" y="230" width="30" height="60" as="geometry" />
        </mxCell>
        <mxCell id="K0vT35Zqtz-yyDxqhwDM-12" value="Client" style="swimlane;whiteSpace=wrap;html=1;" vertex="1" parent="1">
          <mxGeometry x="113" y="40" width="120" height="440" as="geometry" />
        </mxCell>
        <mxCell id="K0vT35Zqtz-yyDxqhwDM-2" value="Client Windows" style="whiteSpace=wrap;html=1;aspect=fixed;" vertex="1" parent="K0vT35Zqtz-yyDxqhwDM-12">
          <mxGeometry x="30" y="70" width="60" height="60" as="geometry" />
        </mxCell>
        <mxCell id="K0vT35Zqtz-yyDxqhwDM-3" value="Client Linux" style="whiteSpace=wrap;html=1;aspect=fixed;" vertex="1" parent="K0vT35Zqtz-yyDxqhwDM-12">
          <mxGeometry x="30" y="190" width="60" height="60" as="geometry" />
        </mxCell>
        <mxCell id="K0vT35Zqtz-yyDxqhwDM-4" value="Client MacOs" style="whiteSpace=wrap;html=1;aspect=fixed;" vertex="1" parent="K0vT35Zqtz-yyDxqhwDM-12">
          <mxGeometry x="30" y="300" width="60" height="60" as="geometry" />
        </mxCell>
        <mxCell id="K0vT35Zqtz-yyDxqhwDM-13" value="Server" style="swimlane;whiteSpace=wrap;html=1;" vertex="1" parent="1">
          <mxGeometry x="370" y="40" width="900" height="440" as="geometry" />
        </mxCell>
        <mxCell id="K0vT35Zqtz-yyDxqhwDM-17" value="Auth" style="swimlane;whiteSpace=wrap;html=1;" vertex="1" parent="K0vT35Zqtz-yyDxqhwDM-13">
          <mxGeometry x="39" y="291" width="120" height="145" as="geometry" />
        </mxCell>
        <mxCell id="K0vT35Zqtz-yyDxqhwDM-18" value="SSO" style="whiteSpace=wrap;html=1;aspect=fixed;" vertex="1" parent="K0vT35Zqtz-yyDxqhwDM-17">
          <mxGeometry x="20" y="60" width="80" height="80" as="geometry" />
        </mxCell>
        <mxCell id="K0vT35Zqtz-yyDxqhwDM-27" value="Handlers" style="rounded=1;whiteSpace=wrap;html=1;align=center;verticalAlign=top;" vertex="1" parent="K0vT35Zqtz-yyDxqhwDM-13">
          <mxGeometry x="39" y="51" width="120" height="230" as="geometry" />
        </mxCell>
        <mxCell id="K0vT35Zqtz-yyDxqhwDM-28" value="gRPC" style="whiteSpace=wrap;html=1;aspect=fixed;" vertex="1" parent="K0vT35Zqtz-yyDxqhwDM-13">
          <mxGeometry x="14" y="80" width="50" height="50" as="geometry" />
        </mxCell>
        <mxCell id="K0vT35Zqtz-yyDxqhwDM-29" value="Another" style="whiteSpace=wrap;html=1;aspect=fixed;" vertex="1" parent="K0vT35Zqtz-yyDxqhwDM-13">
          <mxGeometry x="14" y="180" width="50" height="50" as="geometry" />
        </mxCell>
        <mxCell id="K0vT35Zqtz-yyDxqhwDM-53" style="edgeStyle=orthogonalEdgeStyle;rounded=0;orthogonalLoop=1;jettySize=auto;html=1;exitX=1;exitY=0.5;exitDx=0;exitDy=0;entryX=0;entryY=0.5;entryDx=0;entryDy=0;" edge="1" parent="K0vT35Zqtz-yyDxqhwDM-13" source="K0vT35Zqtz-yyDxqhwDM-36" target="K0vT35Zqtz-yyDxqhwDM-40">
          <mxGeometry relative="1" as="geometry" />
        </mxCell>
        <mxCell id="K0vT35Zqtz-yyDxqhwDM-36" value="Request" style="whiteSpace=wrap;html=1;aspect=fixed;" vertex="1" parent="K0vT35Zqtz-yyDxqhwDM-13">
          <mxGeometry x="130" y="80" width="50" height="50" as="geometry" />
        </mxCell>
        <mxCell id="K0vT35Zqtz-yyDxqhwDM-37" value="Response" style="whiteSpace=wrap;html=1;aspect=fixed;" vertex="1" parent="K0vT35Zqtz-yyDxqhwDM-13">
          <mxGeometry x="130" y="180" width="50" height="50" as="geometry" />
        </mxCell>
        <mxCell id="K0vT35Zqtz-yyDxqhwDM-38" value="Use Case" style="rounded=1;whiteSpace=wrap;html=1;align=center;verticalAlign=top;arcSize=12;" vertex="1" parent="K0vT35Zqtz-yyDxqhwDM-13">
          <mxGeometry x="280" y="51" width="120" height="380" as="geometry" />
        </mxCell>
        <mxCell id="K0vT35Zqtz-yyDxqhwDM-40" value="Params" style="whiteSpace=wrap;html=1;aspect=fixed;" vertex="1" parent="K0vT35Zqtz-yyDxqhwDM-13">
          <mxGeometry x="250" y="80" width="50" height="50" as="geometry" />
        </mxCell>
        <mxCell id="K0vT35Zqtz-yyDxqhwDM-41" value="Entity" style="whiteSpace=wrap;html=1;aspect=fixed;" vertex="1" parent="K0vT35Zqtz-yyDxqhwDM-13">
          <mxGeometry x="380" y="338.5" width="50" height="50" as="geometry" />
        </mxCell>
        <mxCell id="K0vT35Zqtz-yyDxqhwDM-42" value="Service" style="rounded=1;whiteSpace=wrap;html=1;align=center;verticalAlign=top;" vertex="1" parent="K0vT35Zqtz-yyDxqhwDM-13">
          <mxGeometry x="510" y="56" width="120" height="380" as="geometry" />
        </mxCell>
        <mxCell id="K0vT35Zqtz-yyDxqhwDM-45" value="Adapter" style="rounded=1;whiteSpace=wrap;html=1;align=center;verticalAlign=top;" vertex="1" parent="K0vT35Zqtz-yyDxqhwDM-13">
          <mxGeometry x="740" y="51" width="120" height="380" as="geometry" />
        </mxCell>
        <mxCell id="K0vT35Zqtz-yyDxqhwDM-50" value="Entity" style="whiteSpace=wrap;html=1;aspect=fixed;" vertex="1" parent="K0vT35Zqtz-yyDxqhwDM-13">
          <mxGeometry x="490" y="80" width="50" height="50" as="geometry" />
        </mxCell>
        <mxCell id="K0vT35Zqtz-yyDxqhwDM-51" value="Entity" style="whiteSpace=wrap;html=1;aspect=fixed;" vertex="1" parent="K0vT35Zqtz-yyDxqhwDM-13">
          <mxGeometry x="610" y="338.5" width="50" height="50" as="geometry" />
        </mxCell>
        <mxCell id="K0vT35Zqtz-yyDxqhwDM-52" value="Entity" style="whiteSpace=wrap;html=1;aspect=fixed;" vertex="1" parent="K0vT35Zqtz-yyDxqhwDM-13">
          <mxGeometry x="710" y="80" width="50" height="50" as="geometry" />
        </mxCell>
        <mxCell id="K0vT35Zqtz-yyDxqhwDM-54" value="" style="endArrow=classic;html=1;rounded=0;exitX=1.008;exitY=0.142;exitDx=0;exitDy=0;exitPerimeter=0;entryX=0;entryY=0.5;entryDx=0;entryDy=0;" edge="1" parent="K0vT35Zqtz-yyDxqhwDM-13" source="K0vT35Zqtz-yyDxqhwDM-38" target="K0vT35Zqtz-yyDxqhwDM-50">
          <mxGeometry width="50" height="50" relative="1" as="geometry">
            <mxPoint x="340" y="250" as="sourcePoint" />
            <mxPoint x="390" y="200" as="targetPoint" />
          </mxGeometry>
        </mxCell>
        <mxCell id="K0vT35Zqtz-yyDxqhwDM-55" value="" style="endArrow=classic;html=1;rounded=0;entryX=0;entryY=0.5;entryDx=0;entryDy=0;" edge="1" parent="K0vT35Zqtz-yyDxqhwDM-13">
          <mxGeometry width="50" height="50" relative="1" as="geometry">
            <mxPoint x="630" y="105" as="sourcePoint" />
            <mxPoint x="710" y="104.5" as="targetPoint" />
          </mxGeometry>
        </mxCell>
        <mxCell id="K0vT35Zqtz-yyDxqhwDM-56" value="" style="endArrow=classic;html=1;rounded=0;entryX=1;entryY=0.5;entryDx=0;entryDy=0;" edge="1" parent="K0vT35Zqtz-yyDxqhwDM-13" target="K0vT35Zqtz-yyDxqhwDM-41">
          <mxGeometry width="50" height="50" relative="1" as="geometry">
            <mxPoint x="509" y="364" as="sourcePoint" />
            <mxPoint x="390" y="200" as="targetPoint" />
          </mxGeometry>
        </mxCell>
        <mxCell id="K0vT35Zqtz-yyDxqhwDM-57" value="" style="endArrow=classic;html=1;rounded=0;entryX=1;entryY=0.5;entryDx=0;entryDy=0;" edge="1" parent="K0vT35Zqtz-yyDxqhwDM-13">
          <mxGeometry width="50" height="50" relative="1" as="geometry">
            <mxPoint x="739" y="363" as="sourcePoint" />
            <mxPoint x="660" y="363" as="targetPoint" />
          </mxGeometry>
        </mxCell>
        <mxCell id="K0vT35Zqtz-yyDxqhwDM-58" value="" style="endArrow=classic;html=1;rounded=0;exitX=0;exitY=0.75;exitDx=0;exitDy=0;entryX=1;entryY=0.5;entryDx=0;entryDy=0;" edge="1" parent="K0vT35Zqtz-yyDxqhwDM-13" source="K0vT35Zqtz-yyDxqhwDM-38" target="K0vT35Zqtz-yyDxqhwDM-37">
          <mxGeometry width="50" height="50" relative="1" as="geometry">
            <mxPoint x="340" y="250" as="sourcePoint" />
            <mxPoint x="390" y="200" as="targetPoint" />
          </mxGeometry>
        </mxCell>
        <mxCell id="K0vT35Zqtz-yyDxqhwDM-20" value="" style="endArrow=classic;html=1;rounded=0;exitX=1;exitY=0.75;exitDx=0;exitDy=0;entryX=0.038;entryY=0.363;entryDx=0;entryDy=0;entryPerimeter=0;" edge="1" parent="1" source="K0vT35Zqtz-yyDxqhwDM-12" target="K0vT35Zqtz-yyDxqhwDM-18">
          <mxGeometry width="50" height="50" relative="1" as="geometry">
            <mxPoint x="390" y="410" as="sourcePoint" />
            <mxPoint x="440" y="360" as="targetPoint" />
          </mxGeometry>
        </mxCell>
        <mxCell id="K0vT35Zqtz-yyDxqhwDM-21" value="Login/Register" style="edgeLabel;html=1;align=center;verticalAlign=middle;resizable=0;points=[];" vertex="1" connectable="0" parent="K0vT35Zqtz-yyDxqhwDM-20">
          <mxGeometry x="0.0613" y="-1" relative="1" as="geometry">
            <mxPoint as="offset" />
          </mxGeometry>
        </mxCell>
        <mxCell id="K0vT35Zqtz-yyDxqhwDM-22" value="" style="endArrow=classic;html=1;rounded=0;exitX=0;exitY=0.75;exitDx=0;exitDy=0;" edge="1" parent="1" source="K0vT35Zqtz-yyDxqhwDM-18">
          <mxGeometry width="50" height="50" relative="1" as="geometry">
            <mxPoint x="390" y="410" as="sourcePoint" />
            <mxPoint x="230" y="420" as="targetPoint" />
          </mxGeometry>
        </mxCell>
        <mxCell id="K0vT35Zqtz-yyDxqhwDM-23" value="Auth Token" style="edgeLabel;html=1;align=center;verticalAlign=middle;resizable=0;points=[];" vertex="1" connectable="0" parent="K0vT35Zqtz-yyDxqhwDM-22">
          <mxGeometry x="0.0652" relative="1" as="geometry">
            <mxPoint as="offset" />
          </mxGeometry>
        </mxCell>
        <mxCell id="K0vT35Zqtz-yyDxqhwDM-31" value="" style="endArrow=classic;html=1;rounded=0;entryX=0;entryY=0.5;entryDx=0;entryDy=0;" edge="1" parent="1" target="K0vT35Zqtz-yyDxqhwDM-28">
          <mxGeometry width="50" height="50" relative="1" as="geometry">
            <mxPoint x="230" y="210" as="sourcePoint" />
            <mxPoint x="440" y="260" as="targetPoint" />
          </mxGeometry>
        </mxCell>
        <mxCell id="K0vT35Zqtz-yyDxqhwDM-34" value="Text" style="edgeLabel;html=1;align=center;verticalAlign=middle;resizable=0;points=[];" vertex="1" connectable="0" parent="K0vT35Zqtz-yyDxqhwDM-31">
          <mxGeometry x="-0.0549" y="-4" relative="1" as="geometry">
            <mxPoint as="offset" />
          </mxGeometry>
        </mxCell>
        <mxCell id="K0vT35Zqtz-yyDxqhwDM-35" value="Token + Action" style="edgeLabel;html=1;align=center;verticalAlign=middle;resizable=0;points=[];" vertex="1" connectable="0" parent="K0vT35Zqtz-yyDxqhwDM-31">
          <mxGeometry x="-0.1838" y="-1" relative="1" as="geometry">
            <mxPoint y="-1" as="offset" />
          </mxGeometry>
        </mxCell>
        <mxCell id="K0vT35Zqtz-yyDxqhwDM-48" value="Infrastructure" style="ellipse;whiteSpace=wrap;html=1;aspect=fixed;" vertex="1" parent="1">
          <mxGeometry x="1300" y="200" width="130" height="130" as="geometry" />
        </mxCell>
        <mxCell id="K0vT35Zqtz-yyDxqhwDM-49" value="" style="endArrow=classic;startArrow=classic;html=1;rounded=0;exitX=1;exitY=0.461;exitDx=0;exitDy=0;exitPerimeter=0;entryX=0;entryY=0.5;entryDx=0;entryDy=0;" edge="1" parent="1" source="K0vT35Zqtz-yyDxqhwDM-45" target="K0vT35Zqtz-yyDxqhwDM-48">
          <mxGeometry width="50" height="50" relative="1" as="geometry">
            <mxPoint x="710" y="290" as="sourcePoint" />
            <mxPoint x="760" y="240" as="targetPoint" />
          </mxGeometry>
        </mxCell>
        <mxCell id="K0vT35Zqtz-yyDxqhwDM-59" value="БД" style="shape=cylinder3;whiteSpace=wrap;html=1;boundedLbl=1;backgroundOutline=1;size=15;" vertex="1" parent="1">
          <mxGeometry x="1510" y="90" width="100" height="80" as="geometry" />
        </mxCell>
        <mxCell id="K0vT35Zqtz-yyDxqhwDM-60" value="MinIO" style="shape=cylinder3;whiteSpace=wrap;html=1;boundedLbl=1;backgroundOutline=1;size=15;" vertex="1" parent="1">
          <mxGeometry x="1510" y="350" width="100" height="80" as="geometry" />
        </mxCell>
        <mxCell id="K0vT35Zqtz-yyDxqhwDM-62" value="" style="endArrow=classic;startArrow=classic;html=1;rounded=0;entryX=0;entryY=0.588;entryDx=0;entryDy=0;entryPerimeter=0;exitX=1;exitY=0;exitDx=0;exitDy=0;" edge="1" parent="1" source="K0vT35Zqtz-yyDxqhwDM-48" target="K0vT35Zqtz-yyDxqhwDM-59">
          <mxGeometry width="50" height="50" relative="1" as="geometry">
            <mxPoint x="1360" y="290" as="sourcePoint" />
            <mxPoint x="1410" y="240" as="targetPoint" />
          </mxGeometry>
        </mxCell>
        <mxCell id="K0vT35Zqtz-yyDxqhwDM-63" value="" style="endArrow=classic;startArrow=classic;html=1;rounded=0;exitX=1;exitY=1;exitDx=0;exitDy=0;entryX=0;entryY=0.5;entryDx=0;entryDy=0;entryPerimeter=0;" edge="1" parent="1" source="K0vT35Zqtz-yyDxqhwDM-48" target="K0vT35Zqtz-yyDxqhwDM-60">
          <mxGeometry width="50" height="50" relative="1" as="geometry">
            <mxPoint x="1360" y="290" as="sourcePoint" />
            <mxPoint x="1410" y="240" as="targetPoint" />
          </mxGeometry>
        </mxCell>
      </root>
    </mxGraphModel>
  </diagram>
</mxfile>
